# xmcd
#
# Track frame offsets: 
#        150
#        17870
#        36692
#        46957
#
# Disc length: 828 seconds
#
# Revision: 0
# Processed by: cddbd v1.5.2PL0 Copyright (c) Steve Scherf et al.
# Submitted via: ExactAudioCopy v0.95b4
#
DISCID=32033a04
DTITLE=Marcel Scherpenzeel Band - You haven't seen a thing
DYEAR=1997
DGENRE=Blues
TTITLE0=You haven't seen a thing
TTITLE1=Keep on lovin' me baby
TTITLE2=The run
TTITLE3=What's wrong
EXTD=
EXTT0=
EXTT1=
EXTT2=
EXTT3=
PLAYORDER=
